<svg width="270" height="859" viewBox="0 0 270 859" fill="none" xmlns="http://www.w3.org/2000/svg">
<g opacity="0.05" clip-path="url(#clip0_263_1275)">
<path d="M-51.3016 425.037C-67.6958 353.336 -22.8582 281.933 48.8461 265.553C120.55 249.173 191.968 294.02 208.363 365.721C224.757 437.422 179.919 508.825 108.215 525.205C36.5105 541.585 -34.9074 496.738 -51.3016 425.037Z" stroke="white" stroke-width="2" stroke-miterlimit="10"/>
<path d="M-140.446 472.33C-156.84 400.629 -112.003 329.226 -40.2985 312.846C31.4058 296.466 102.824 341.313 119.218 413.014C135.612 484.715 90.7745 556.118 19.0702 572.498C-52.6341 588.878 -124.052 544.031 -140.446 472.33Z" stroke="white" stroke-width="2" stroke-miterlimit="10"/>
<path d="M-55.1846 525.871C-71.5788 454.17 -26.7411 382.767 44.9632 366.387C116.668 350.007 188.086 394.854 204.48 466.555C220.874 538.256 176.036 609.659 104.332 626.039C32.6276 642.419 -38.7904 597.572 -55.1846 525.871Z" stroke="white" stroke-width="2" stroke-miterlimit="10"/>
<path d="M-101.224 159.408C-117.618 87.7074 -72.7801 16.3038 -1.07577 -0.0760761C70.6285 -16.4559 142.046 28.3908 158.441 100.092C174.835 171.793 129.997 243.196 58.2929 259.576C-13.4114 275.956 -84.8294 231.109 -101.224 159.408Z" stroke="white" stroke-width="2" stroke-miterlimit="10"/>
<path d="M-12.0908 112.133C-28.4849 40.432 16.3527 -30.9716 88.057 -47.3515C159.761 -63.7313 231.179 -18.8846 247.573 52.8164C263.968 124.517 219.13 195.921 147.426 212.301C75.7214 228.681 4.30345 183.834 -12.0908 112.133Z" stroke="white" stroke-width="2" stroke-miterlimit="10"/>
<path d="M-97.3525 58.5822C-113.747 -13.1188 -68.909 -84.5224 2.79532 -100.902C74.4996 -117.282 145.918 -72.4354 162.312 -0.734376C178.706 70.9666 133.868 142.37 62.164 158.75C-9.54033 175.13 -80.9583 130.283 -97.3525 58.5822Z" stroke="white" stroke-width="2" stroke-miterlimit="10"/>
<path d="M-226.944 881.834C-289.239 842.716 -308.034 760.514 -268.924 698.231C-229.813 635.948 -147.608 617.169 -85.3119 656.287C-23.0162 695.405 -4.22097 777.608 -43.3315 839.891C-82.442 902.174 -164.648 920.953 -226.944 881.834Z" stroke="white" stroke-width="2" stroke-miterlimit="10"/>
<path d="M-196.81 751.422C-213.204 679.721 -168.366 608.317 -96.6617 591.938C-24.9574 575.558 46.4605 620.404 62.8547 692.105C79.2489 763.806 34.4112 835.21 -37.2931 851.59C-108.997 867.97 -180.415 823.123 -196.81 751.422Z" stroke="white" stroke-width="2" stroke-miterlimit="10"/>
<path d="M-282.071 697.887C-298.465 626.186 -253.628 554.782 -181.923 538.402C-110.219 522.023 -38.8012 566.869 -22.407 638.57C-6.01278 710.271 -50.8505 781.675 -122.555 798.055C-194.259 814.435 -265.677 769.588 -282.071 697.887Z" stroke="white" stroke-width="2" stroke-miterlimit="10"/>
</g>
<defs>
<clipPath id="clip0_263_1275">
<rect width="270" height="859" fill="white"/>
</clipPath>
</defs>
</svg>
