<svg width="1310" height="550" viewBox="0 0 1310 550" fill="none" xmlns="http://www.w3.org/2000/svg">
<g opacity="0.05" clip-path="url(#clip0_263_1151)">
<path d="M1118.53 217.122C1170.53 165.108 1254.85 165.108 1306.85 217.122C1358.86 269.136 1358.86 353.467 1306.85 405.481C1254.85 457.495 1170.53 457.495 1118.53 405.481C1066.53 353.467 1066.53 269.136 1118.53 217.122Z" stroke="white" stroke-width="2" stroke-miterlimit="10"/>
<path d="M1031.07 166.778C1083.08 114.764 1167.39 114.764 1219.39 166.778C1271.4 218.792 1271.4 303.123 1219.39 355.137C1167.39 407.151 1083.08 407.151 1031.07 355.137C979.07 303.123 979.07 218.792 1031.07 166.778Z" stroke="white" stroke-width="2" stroke-miterlimit="10"/>
<path d="M1031.07 267.454C1083.08 215.44 1167.39 215.44 1219.39 267.454C1271.4 319.468 1271.4 403.799 1219.39 455.813C1167.39 507.827 1083.08 507.827 1031.07 455.813C979.07 403.799 979.07 319.468 1031.07 267.454Z" stroke="white" stroke-width="2" stroke-miterlimit="10"/>
<path d="M1118.53 -149.949C1170.53 -201.962 1254.84 -201.962 1306.85 -149.949C1358.85 -97.9347 1358.85 -13.6035 1306.85 38.4104C1254.84 90.4243 1170.53 90.4243 1118.53 38.4104C1066.52 -13.6035 1066.52 -97.9346 1118.53 -149.949Z" stroke="white" stroke-width="2" stroke-miterlimit="10"/>
<path d="M1031.07 -200.285C1083.08 -252.298 1167.39 -252.298 1219.39 -200.285C1271.4 -148.271 1271.4 -63.9395 1219.39 -11.9256C1167.39 40.0883 1083.08 40.0883 1031.07 -11.9256C979.07 -63.9395 979.07 -148.271 1031.07 -200.285Z" stroke="white" stroke-width="2" stroke-miterlimit="10"/>
<path d="M1031.07 -99.6127C1083.08 -151.627 1167.39 -151.627 1219.39 -99.6127C1271.4 -47.5988 1271.4 36.7324 1219.39 88.7463C1167.39 140.76 1083.08 140.76 1031.07 88.7463C979.07 36.7324 979.07 -47.5988 1031.07 -99.6127Z" stroke="white" stroke-width="2" stroke-miterlimit="10"/>
<path d="M1316.94 33.5827C1368.94 -18.4312 1453.25 -18.4312 1505.26 33.5827C1557.26 85.5965 1557.26 169.928 1505.26 221.942C1453.25 273.956 1368.94 273.956 1316.94 221.942C1264.93 169.928 1264.93 85.5966 1316.94 33.5827Z" stroke="white" stroke-width="2" stroke-miterlimit="10"/>
<path d="M1404.37 83.9264C1456.38 31.9125 1540.69 31.9125 1592.7 83.9264C1644.7 135.94 1644.7 220.271 1592.7 272.285C1540.69 324.299 1456.38 324.299 1404.37 272.285C1352.37 220.271 1352.37 135.94 1404.37 83.9264Z" stroke="white" stroke-width="2" stroke-miterlimit="10"/>
<path d="M1404.38 -16.7572C1456.39 -68.7711 1540.7 -68.7711 1592.7 -16.7572C1644.71 35.2567 1644.71 119.588 1592.7 171.602C1540.7 223.616 1456.39 223.616 1404.38 171.602C1352.38 119.588 1352.38 35.2567 1404.38 -16.7572Z" stroke="white" stroke-width="2" stroke-miterlimit="10"/>
<path d="M1350.89 -283.136C1402.9 -335.15 1487.21 -335.15 1539.22 -283.136C1591.22 -231.122 1591.22 -146.791 1539.22 -94.7771C1487.21 -42.7632 1402.9 -42.7632 1350.89 -94.7771C1298.89 -146.791 1298.89 -231.122 1350.89 -283.136Z" stroke="white" stroke-width="2" stroke-miterlimit="10"/>
<path d="M120.062 -55.7771C120.062 -129.337 179.681 -188.968 253.226 -188.968C326.771 -188.968 386.391 -129.337 386.391 -55.7771C386.391 17.7823 326.771 77.4141 253.226 77.4141C179.681 77.4141 120.062 17.7824 120.062 -55.7771Z" stroke="white" stroke-width="2" stroke-miterlimit="10"/>
<path d="M32.6046 -106.117C32.6046 -179.676 92.2244 -239.308 165.769 -239.308C239.314 -239.308 298.934 -179.676 298.934 -106.117C298.934 -32.5575 239.314 27.0742 165.769 27.0742C92.2244 27.0742 32.6046 -32.5575 32.6046 -106.117Z" stroke="white" stroke-width="2" stroke-miterlimit="10"/>
<path d="M32.6046 -5.43724C32.6046 -78.9967 92.2244 -138.628 165.769 -138.628C239.314 -138.628 298.934 -78.9967 298.934 -5.43726C298.934 68.1222 239.314 127.754 165.769 127.754C92.2244 127.754 32.6046 68.1222 32.6046 -5.43724Z" stroke="white" stroke-width="2" stroke-miterlimit="10"/>
<path d="M638.277 -55.7771C638.277 -129.337 697.896 -188.968 771.441 -188.968C844.986 -188.968 904.605 -129.337 904.605 -55.7771C904.605 17.7823 844.986 77.4141 771.441 77.4141C697.896 77.4141 638.277 17.7824 638.277 -55.7771Z" stroke="white" stroke-width="2" stroke-miterlimit="10"/>
<path d="M764.746 -99.6009C816.749 -151.615 901.063 -151.615 953.067 -99.6009C1005.07 -47.5871 1005.07 36.7441 953.067 88.758C901.063 140.772 816.749 140.772 764.746 88.758C712.742 36.7441 712.742 -47.587 764.746 -99.6009Z" stroke="white" stroke-width="2" stroke-miterlimit="10"/>
<path d="M764.742 -200.281C816.745 -252.295 901.059 -252.295 953.063 -200.281C1005.07 -148.267 1005.07 -63.9356 953.063 -11.9217C901.059 40.0922 816.745 40.0922 764.742 -11.9217C712.738 -63.9355 712.738 -148.267 764.742 -200.281Z" stroke="white" stroke-width="2" stroke-miterlimit="10"/>
<path d="M638.277 311.293C638.277 237.734 697.896 178.102 771.441 178.102C844.986 178.102 904.605 237.734 904.605 311.293C904.605 384.853 844.986 444.484 771.441 444.484C697.896 444.484 638.277 384.853 638.277 311.293Z" stroke="white" stroke-width="2" stroke-miterlimit="10"/>
<path d="M764.746 267.462C816.749 215.448 901.063 215.448 953.067 267.462C1005.07 319.475 1005.07 403.807 953.067 455.821C901.063 507.834 816.749 507.834 764.746 455.821C712.742 403.807 712.742 319.475 764.746 267.462Z" stroke="white" stroke-width="2" stroke-miterlimit="10"/>
<path d="M764.742 166.786C816.745 114.772 901.059 114.772 953.063 166.786C1005.07 218.8 1005.07 303.131 953.063 355.145C901.059 407.159 816.745 407.159 764.742 355.145C712.738 303.131 712.738 218.8 764.742 166.786Z" stroke="white" stroke-width="2" stroke-miterlimit="10"/>
<path d="M439.882 127.75C439.882 54.1908 499.502 -5.44091 573.046 -5.44091C646.591 -5.44092 706.211 54.1908 706.211 127.75C706.211 201.31 646.591 260.941 573.046 260.941C499.502 260.941 439.882 201.31 439.882 127.75Z" stroke="white" stroke-width="2" stroke-miterlimit="10"/>
<path d="M352.425 77.4143C352.425 3.85487 412.045 -55.7768 485.589 -55.7768C559.134 -55.7769 618.754 3.85486 618.754 77.4143C618.754 150.974 559.134 210.605 485.589 210.605C412.045 210.605 352.425 150.974 352.425 77.4143Z" stroke="white" stroke-width="2" stroke-miterlimit="10"/>
<path d="M352.425 178.102C352.425 104.542 412.045 44.9107 485.589 44.9107C559.134 44.9106 618.754 104.542 618.754 178.102C618.754 251.661 559.134 311.293 485.589 311.293C412.045 311.293 352.425 251.661 352.425 178.102Z" stroke="white" stroke-width="2" stroke-miterlimit="10"/>
</g>
<defs>
<clipPath id="clip0_263_1151">
<rect width="550" height="1310" fill="white" transform="matrix(-4.37114e-08 -1 -1 4.37114e-08 1310 550)"/>
</clipPath>
</defs>
</svg>
