<svg width="32" height="26" viewBox="0 0 32 26" fill="none" xmlns="http://www.w3.org/2000/svg">
<path d="M20.8558 22.1009C20.4354 22.2095 20.0122 22.3058 19.5868 22.3897C17.278 22.8502 14.9075 22.8407 12.602 22.362C12.1982 22.2786 11.6266 22.1314 10.8898 21.9231L8.47503 25.248C2.51536 25.0453 0.25 20.8148 0.25 20.8148C0.25 11.4232 4.1331 3.80936 4.1331 3.80936C8.01619 0.662168 11.7105 0.748279 11.7105 0.748279L12.7671 2.2066C12.8645 2.19214 12.9625 2.18286 13.0608 2.17882C15.075 1.89596 17.1162 1.90531 19.128 2.2066L20.2869 0.748279C20.2869 0.748279 23.9838 0.662168 27.8643 3.81214C27.8643 3.81214 31.75 11.4232 31.75 20.8148C31.75 20.8148 29.4558 25.0425 23.4961 25.248L20.8558 22.1009ZM10.7928 12.1565C9.21704 12.1565 7.97162 13.4065 7.97162 14.9343C7.97162 16.462 9.24326 17.712 10.7928 17.712C12.366 17.712 13.6114 16.462 13.6114 14.9343C13.6376 13.4065 12.3686 12.1565 10.7928 12.1565ZM20.8821 12.1565C19.3089 12.1565 18.0635 13.4065 18.0635 14.9343C18.0635 16.462 19.3351 17.712 20.8821 17.712C22.4578 17.712 23.7033 16.462 23.7033 14.9343C23.7033 13.4065 22.4578 12.1565 20.8821 12.1565Z" fill="#A0AFE4"/>
</svg>
