<svg width="519" height="900" viewBox="0 0 519 900" fill="none" xmlns="http://www.w3.org/2000/svg">
<path d="M-25.081 17.6644C9.2223 -16.6389 9.2223 -72.2556 -25.081 -106.559C-59.3844 -140.862 -115.001 -140.862 -149.304 -106.559C-183.608 -72.2556 -183.608 -16.6389 -149.304 17.6644C-115.001 51.9677 -59.3844 51.9677 -25.081 17.6644Z" stroke="#37473A" stroke-width="2.4787" stroke-miterlimit="10"/>
<path d="M-25.081 17.6644C9.2223 -16.6389 9.2223 -72.2556 -25.081 -106.559C-59.3844 -140.862 -115.001 -140.862 -149.304 -106.559C-183.608 -72.2556 -183.608 -16.6389 -149.304 17.6644C-115.001 51.9677 -59.3844 51.9677 -25.081 17.6644Z" stroke="#3E4C3D" stroke-width="2.4787" stroke-miterlimit="10"/>
<path d="M8.11232 75.3451C42.4156 41.0417 42.4156 -14.5749 8.1123 -48.8782C-26.191 -83.1816 -81.8077 -83.1816 -116.111 -48.8783C-150.414 -14.5749 -150.414 41.0417 -116.111 75.3451C-81.8077 109.648 -26.191 109.648 8.11232 75.3451Z" stroke="#37473A" stroke-width="2.4787" stroke-miterlimit="10"/>
<path d="M8.11232 75.3451C42.4156 41.0417 42.4156 -14.5749 8.1123 -48.8782C-26.191 -83.1816 -81.8077 -83.1816 -116.111 -48.8783C-150.414 -14.5749 -150.414 41.0417 -116.111 75.3451C-81.8077 109.648 -26.191 109.648 8.11232 75.3451Z" stroke="#3E4C3D" stroke-width="2.4787" stroke-miterlimit="10"/>
<path d="M-58.2764 75.3402C-23.973 41.0368 -23.973 -14.5798 -58.2763 -48.8832C-92.5797 -83.1865 -148.196 -83.1865 -182.5 -48.8831C-216.803 -14.5798 -216.803 41.0369 -182.5 75.3402C-148.196 109.644 -92.5797 109.643 -58.2764 75.3402Z" stroke="#37473A" stroke-width="2.4787" stroke-miterlimit="10"/>
<path d="M-58.2764 75.3402C-23.973 41.0368 -23.973 -14.5798 -58.2763 -48.8832C-92.5797 -83.1865 -148.196 -83.1865 -182.5 -48.8831C-216.803 -14.5798 -216.803 41.0369 -182.5 75.3402C-148.196 109.644 -92.5797 109.643 -58.2764 75.3402Z" stroke="#3E4C3D" stroke-width="2.4787" stroke-miterlimit="10"/>
<path d="M95.96 227.132C130.263 192.829 130.263 137.212 95.96 102.909C61.6567 68.6055 6.03996 68.6055 -28.2634 102.909C-62.5667 137.212 -62.5667 192.829 -28.2633 227.132C6.03998 261.435 61.6566 261.436 95.96 227.132Z" stroke="#37473A" stroke-width="2.4787" stroke-miterlimit="10"/>
<path d="M95.96 227.132C130.263 192.829 130.263 137.212 95.96 102.909C61.6567 68.6055 6.03996 68.6055 -28.2634 102.909C-62.5667 137.212 -62.5667 192.829 -28.2633 227.132C6.03998 261.435 61.6566 261.436 95.96 227.132Z" stroke="#3E4C3D" stroke-width="2.4787" stroke-miterlimit="10"/>
<path d="M129.151 284.812C163.455 250.509 163.455 194.892 129.151 160.589C94.8481 126.285 39.2314 126.285 4.92804 160.589C-29.3753 194.892 -29.3752 250.509 4.92809 284.812C39.2314 319.115 94.848 319.115 129.151 284.812Z" stroke="#37473A" stroke-width="2.4787" stroke-miterlimit="10"/>
<path d="M129.151 284.812C163.455 250.509 163.455 194.892 129.151 160.589C94.8481 126.285 39.2314 126.285 4.92804 160.589C-29.3753 194.892 -29.3752 250.509 4.92809 284.812C39.2314 319.115 94.848 319.115 129.151 284.812Z" stroke="#3E4C3D" stroke-width="2.4787" stroke-miterlimit="10"/>
<path d="M62.753 284.815C97.0563 250.511 97.0563 194.895 62.753 160.591C28.4496 126.288 -27.167 126.288 -61.4704 160.591C-95.7737 194.895 -95.7737 250.511 -61.4704 284.815C-27.167 319.118 28.4496 319.118 62.753 284.815Z" stroke="#37473A" stroke-width="2.4787" stroke-miterlimit="10"/>
<path d="M62.753 284.815C97.0563 250.511 97.0563 194.895 62.753 160.591C28.4496 126.288 -27.167 126.288 -61.4704 160.591C-95.7737 194.895 -95.7737 250.511 -61.4704 284.815C-27.167 319.118 28.4496 319.118 62.753 284.815Z" stroke="#3E4C3D" stroke-width="2.4787" stroke-miterlimit="10"/>
<path d="M-25.0869 436.594C9.21643 402.291 9.21643 346.674 -25.0869 312.371C-59.3902 278.067 -115.007 278.067 -149.31 312.371C-183.614 346.674 -183.614 402.291 -149.31 436.594C-115.007 470.897 -59.3902 470.897 -25.0869 436.594Z" stroke="#37473A" stroke-width="2.4787" stroke-miterlimit="10"/>
<path d="M-25.0869 436.594C9.21643 402.291 9.21643 346.674 -25.0869 312.371C-59.3902 278.067 -115.007 278.067 -149.31 312.371C-183.614 346.674 -183.614 402.291 -149.31 436.594C-115.007 470.897 -59.3902 470.897 -25.0869 436.594Z" stroke="#3E4C3D" stroke-width="2.4787" stroke-miterlimit="10"/>
<path d="M8.11232 494.28C42.4156 459.976 42.4156 404.36 8.11228 370.056C-26.191 335.753 -81.8077 335.753 -116.111 370.056C-150.414 404.36 -150.414 459.976 -116.111 494.28C-81.8077 528.583 -26.191 528.583 8.11232 494.28Z" stroke="#37473A" stroke-width="2.4787" stroke-miterlimit="10"/>
<path d="M8.11232 494.28C42.4156 459.976 42.4156 404.36 8.11228 370.056C-26.191 335.753 -81.8077 335.753 -116.111 370.056C-150.414 404.36 -150.414 459.976 -116.111 494.28C-81.8077 528.583 -26.191 528.583 8.11232 494.28Z" stroke="#3E4C3D" stroke-width="2.4787" stroke-miterlimit="10"/>
<path d="M-58.2764 494.276C-23.973 459.972 -23.973 404.356 -58.2764 370.052C-92.5797 335.749 -148.196 335.749 -182.5 370.052C-216.803 404.356 -216.803 459.972 -182.5 494.276C-148.196 528.579 -92.5797 528.579 -58.2764 494.276Z" stroke="#37473A" stroke-width="2.4787" stroke-miterlimit="10"/>
<path d="M-58.2764 494.276C-23.973 459.972 -23.973 404.356 -58.2764 370.052C-92.5797 335.749 -148.196 335.749 -182.5 370.052C-216.803 404.356 -216.803 459.972 -182.5 494.276C-148.196 528.579 -92.5797 528.579 -58.2764 494.276Z" stroke="#3E4C3D" stroke-width="2.4787" stroke-miterlimit="10"/>
<path d="M33.6408 671.789C82.1535 671.789 121.481 632.462 121.481 583.949C121.481 535.437 82.1535 496.109 33.6408 496.109C-14.8719 496.109 -54.1992 535.437 -54.1992 583.949C-54.1992 632.462 -14.8719 671.789 33.6408 671.789Z" stroke="#37473A" stroke-width="2.4787" stroke-miterlimit="10"/>
<path d="M33.6408 671.789C82.1535 671.789 121.481 632.462 121.481 583.949C121.481 535.437 82.1535 496.109 33.6408 496.109C-14.8719 496.109 -54.1992 535.437 -54.1992 583.949C-54.1992 632.462 -14.8719 671.789 33.6408 671.789Z" stroke="#3E4C3D" stroke-width="2.4787" stroke-miterlimit="10"/>
<path d="M66.84 729.479C115.353 729.479 154.68 690.152 154.68 641.639C154.68 593.126 115.353 553.799 66.84 553.799C18.3273 553.799 -21 593.126 -21 641.639C-21 690.152 18.3273 729.479 66.84 729.479Z" stroke="#37473A" stroke-width="2.4787" stroke-miterlimit="10"/>
<path d="M66.84 729.479C115.353 729.479 154.68 690.152 154.68 641.639C154.68 593.126 115.353 553.799 66.84 553.799C18.3273 553.799 -21 593.126 -21 641.639C-21 690.152 18.3273 729.479 66.84 729.479Z" stroke="#3E4C3D" stroke-width="2.4787" stroke-miterlimit="10"/>
<path d="M0.441559 729.479C48.9543 729.479 88.2816 690.152 88.2816 641.639C88.2816 593.126 48.9543 553.799 0.441559 553.799C-48.0711 553.799 -87.3984 593.126 -87.3984 641.639C-87.3984 690.152 -48.0711 729.479 0.441559 729.479Z" stroke="#37473A" stroke-width="2.4787" stroke-miterlimit="10"/>
<path d="M0.441559 729.479C48.9543 729.479 88.2816 690.152 88.2816 641.639C88.2816 593.126 48.9543 553.799 0.441559 553.799C-48.0711 553.799 -87.3984 593.126 -87.3984 641.639C-87.3984 690.152 -48.0711 729.479 0.441559 729.479Z" stroke="#3E4C3D" stroke-width="2.4787" stroke-miterlimit="10"/>
<path d="M276.141 671.789C324.654 671.789 363.981 632.462 363.981 583.949C363.981 535.437 324.654 496.109 276.141 496.109C227.628 496.109 188.301 535.437 188.301 583.949C188.301 632.462 227.628 671.789 276.141 671.789Z" stroke="#37473A" stroke-width="2.4787" stroke-miterlimit="10"/>
<path d="M276.141 671.789C324.654 671.789 363.981 632.462 363.981 583.949C363.981 535.437 324.654 496.109 276.141 496.109C227.628 496.109 188.301 535.437 188.301 583.949C188.301 632.462 227.628 671.789 276.141 671.789Z" stroke="#3E4C3D" stroke-width="2.4787" stroke-miterlimit="10"/>
<path d="M309.34 729.479C357.853 729.479 397.18 690.152 397.18 641.639C397.18 593.126 357.853 553.799 309.34 553.799C260.827 553.799 221.5 593.126 221.5 641.639C221.5 690.152 260.827 729.479 309.34 729.479Z" stroke="#37473A" stroke-width="2.4787" stroke-miterlimit="10"/>
<path d="M309.34 729.479C357.853 729.479 397.18 690.152 397.18 641.639C397.18 593.126 357.853 553.799 309.34 553.799C260.827 553.799 221.5 593.126 221.5 641.639C221.5 690.152 260.827 729.479 309.34 729.479Z" stroke="#3E4C3D" stroke-width="2.4787" stroke-miterlimit="10"/>
<path d="M242.942 729.479C291.454 729.479 330.782 690.152 330.782 641.639C330.782 593.126 291.454 553.799 242.942 553.799C194.429 553.799 155.102 593.126 155.102 641.639C155.102 690.152 194.429 729.479 242.942 729.479Z" stroke="#37473A" stroke-width="2.4787" stroke-miterlimit="10"/>
<path d="M242.942 729.479C291.454 729.479 330.782 690.152 330.782 641.639C330.782 593.126 291.454 553.799 242.942 553.799C194.429 553.799 155.102 593.126 155.102 641.639C155.102 690.152 194.429 729.479 242.942 729.479Z" stroke="#3E4C3D" stroke-width="2.4787" stroke-miterlimit="10"/>
<path d="M397.18 881.26C445.693 881.26 485.02 841.933 485.02 793.42C485.02 744.907 445.693 705.58 397.18 705.58C348.667 705.58 309.34 744.907 309.34 793.42C309.34 841.933 348.667 881.26 397.18 881.26Z" stroke="#37473A" stroke-width="2.4787" stroke-miterlimit="10"/>
<path d="M397.18 881.26C445.693 881.26 485.02 841.933 485.02 793.42C485.02 744.907 445.693 705.58 397.18 705.58C348.667 705.58 309.34 744.907 309.34 793.42C309.34 841.933 348.667 881.26 397.18 881.26Z" stroke="#3E4C3D" stroke-width="2.4787" stroke-miterlimit="10"/>
<path d="M430.379 938.949C478.892 938.949 518.219 899.622 518.219 851.109C518.219 802.597 478.892 763.27 430.379 763.27C381.866 763.27 342.539 802.597 342.539 851.109C342.539 899.622 381.866 938.949 430.379 938.949Z" stroke="#37473A" stroke-width="2.4787" stroke-miterlimit="10"/>
<path d="M430.379 938.949C478.892 938.949 518.219 899.622 518.219 851.109C518.219 802.597 478.892 763.27 430.379 763.27C381.866 763.27 342.539 802.597 342.539 851.109C342.539 899.622 381.866 938.949 430.379 938.949Z" stroke="#3E4C3D" stroke-width="2.4787" stroke-miterlimit="10"/>
<path d="M363.981 938.949C412.493 938.949 451.821 899.622 451.821 851.109C451.821 802.597 412.493 763.27 363.981 763.27C315.468 763.27 276.141 802.597 276.141 851.109C276.141 899.622 315.468 938.949 363.981 938.949Z" stroke="#37473A" stroke-width="2.4787" stroke-miterlimit="10"/>
<path d="M363.981 938.949C412.493 938.949 451.821 899.622 451.821 851.109C451.821 802.597 412.493 763.27 363.981 763.27C315.468 763.27 276.141 802.597 276.141 851.109C276.141 899.622 315.468 938.949 363.981 938.949Z" stroke="#3E4C3D" stroke-width="2.4787" stroke-miterlimit="10"/>
<path d="M216.991 436.592C251.295 402.289 251.295 346.672 216.991 312.369C182.688 278.065 127.071 278.065 92.7679 312.369C58.4646 346.672 58.4646 402.289 92.7679 436.592C127.071 470.895 182.688 470.895 216.991 436.592Z" stroke="#37473A" stroke-width="2.4787" stroke-miterlimit="10"/>
<path d="M216.991 436.592C251.295 402.289 251.295 346.672 216.991 312.369C182.688 278.065 127.071 278.065 92.7679 312.369C58.4646 346.672 58.4646 402.289 92.7679 436.592C127.071 470.895 182.688 470.895 216.991 436.592Z" stroke="#3E4C3D" stroke-width="2.4787" stroke-miterlimit="10"/>
<path d="M250.19 494.278C284.494 459.974 284.494 404.358 250.19 370.054C215.887 335.751 160.27 335.751 125.967 370.054C91.6638 404.358 91.6638 459.974 125.967 494.278C160.27 528.581 215.887 528.581 250.19 494.278Z" stroke="#37473A" stroke-width="2.4787" stroke-miterlimit="10"/>
<path d="M250.19 494.278C284.494 459.974 284.494 404.358 250.19 370.054C215.887 335.751 160.27 335.751 125.967 370.054C91.6638 404.358 91.6638 459.974 125.967 494.278C160.27 528.581 215.887 528.581 250.19 494.278Z" stroke="#3E4C3D" stroke-width="2.4787" stroke-miterlimit="10"/>
<path d="M183.792 494.282C218.095 459.978 218.095 404.362 183.792 370.058C149.489 335.755 93.872 335.755 59.5687 370.058C25.2654 404.362 25.2653 459.978 59.5687 494.282C93.872 528.585 149.489 528.585 183.792 494.282Z" stroke="#37473A" stroke-width="2.4787" stroke-miterlimit="10"/>
<path d="M183.792 494.282C218.095 459.978 218.095 404.362 183.792 370.058C149.489 335.755 93.872 335.755 59.5687 370.058C25.2654 404.362 25.2653 459.978 59.5687 494.282C93.872 528.585 149.489 528.585 183.792 494.282Z" stroke="#3E4C3D" stroke-width="2.4787" stroke-miterlimit="10"/>
<path d="M154.891 881.26C203.404 881.26 242.731 841.933 242.731 793.42C242.731 744.907 203.404 705.58 154.891 705.58C106.378 705.58 67.0508 744.907 67.0508 793.42C67.0508 841.933 106.378 881.26 154.891 881.26Z" stroke="#37473A" stroke-width="2.4787" stroke-miterlimit="10"/>
<path d="M154.891 881.26C203.404 881.26 242.731 841.933 242.731 793.42C242.731 744.907 203.404 705.58 154.891 705.58C106.378 705.58 67.0508 744.907 67.0508 793.42C67.0508 841.933 106.378 881.26 154.891 881.26Z" stroke="#3E4C3D" stroke-width="2.4787" stroke-miterlimit="10"/>
<path d="M188.09 938.949C236.603 938.949 275.93 899.622 275.93 851.109C275.93 802.597 236.603 763.27 188.09 763.27C139.577 763.27 100.25 802.597 100.25 851.109C100.25 899.622 139.577 938.949 188.09 938.949Z" stroke="#37473A" stroke-width="2.4787" stroke-miterlimit="10"/>
<path d="M188.09 938.949C236.603 938.949 275.93 899.622 275.93 851.109C275.93 802.597 236.603 763.27 188.09 763.27C139.577 763.27 100.25 802.597 100.25 851.109C100.25 899.622 139.577 938.949 188.09 938.949Z" stroke="#3E4C3D" stroke-width="2.4787" stroke-miterlimit="10"/>
<path d="M121.692 938.949C170.204 938.949 209.532 899.622 209.532 851.109C209.532 802.597 170.204 763.27 121.692 763.27C73.1789 763.27 33.8516 802.597 33.8516 851.109C33.8516 899.622 73.1789 938.949 121.692 938.949Z" stroke="#37473A" stroke-width="2.4787" stroke-miterlimit="10"/>
<path d="M121.692 938.949C170.204 938.949 209.532 899.622 209.532 851.109C209.532 802.597 170.204 763.27 121.692 763.27C73.1789 763.27 33.8516 802.597 33.8516 851.109C33.8516 899.622 73.1789 938.949 121.692 938.949Z" stroke="#3E4C3D" stroke-width="2.4787" stroke-miterlimit="10"/>
<path d="M-87.3983 881.26C-38.8856 881.26 0.441711 841.933 0.441711 793.42C0.441711 744.907 -38.8856 705.58 -87.3983 705.58C-135.911 705.58 -175.238 744.907 -175.238 793.42C-175.238 841.933 -135.911 881.26 -87.3983 881.26Z" stroke="#37473A" stroke-width="2.4787" stroke-miterlimit="10"/>
<path d="M-87.3983 881.26C-38.8856 881.26 0.441711 841.933 0.441711 793.42C0.441711 744.907 -38.8856 705.58 -87.3983 705.58C-135.911 705.58 -175.238 744.907 -175.238 793.42C-175.238 841.933 -135.911 881.26 -87.3983 881.26Z" stroke="#3E4C3D" stroke-width="2.4787" stroke-miterlimit="10"/>
<path d="M-54.1991 938.949C-5.68637 938.949 33.641 899.622 33.641 851.109C33.641 802.597 -5.68637 763.27 -54.1991 763.27C-102.712 763.27 -142.039 802.597 -142.039 851.109C-142.039 899.622 -102.712 938.949 -54.1991 938.949Z" stroke="#37473A" stroke-width="2.4787" stroke-miterlimit="10"/>
<path d="M-54.1991 938.949C-5.68637 938.949 33.641 899.622 33.641 851.109C33.641 802.597 -5.68637 763.27 -54.1991 763.27C-102.712 763.27 -142.039 802.597 -142.039 851.109C-142.039 899.622 -102.712 938.949 -54.1991 938.949Z" stroke="#3E4C3D" stroke-width="2.4787" stroke-miterlimit="10"/>
</svg>
