<svg width="34" height="28" viewBox="0 0 34 28" fill="none" xmlns="http://www.w3.org/2000/svg">
<path d="M33.4655 3.7173C32.2285 4.26448 30.9166 4.62385 29.5734 4.7835C30.9892 3.93675 32.0488 2.60412 32.5549 1.03396C31.2262 1.8247 29.7694 2.37887 28.2512 2.67864C27.2313 1.58745 25.8795 0.863763 24.4059 0.620094C22.9324 0.376425 21.4196 0.626424 20.1027 1.33122C18.7859 2.03602 17.7388 3.15613 17.1243 4.51742C16.5097 5.87871 16.3621 7.4049 16.7044 8.85873C14.0099 8.72368 11.3739 8.02347 8.9676 6.80356C6.56127 5.58365 4.4384 3.87131 2.73681 1.77771C2.1345 2.81224 1.81798 3.98826 1.81968 5.18535C1.81968 7.53489 3.01551 9.61058 4.83357 10.8259C3.75765 10.792 2.70542 10.5014 1.76458 9.97841V10.0627C1.76491 11.6275 2.30639 13.144 3.29721 14.3551C4.28803 15.5663 5.66722 16.3975 7.20093 16.7078C6.20215 16.9785 5.1549 17.0184 4.13843 16.8245C4.57085 18.1714 5.41367 19.3493 6.54888 20.1934C7.68408 21.0375 9.05484 21.5054 10.4692 21.5316C9.06351 22.6356 7.45399 23.4518 5.73268 23.9333C4.01136 24.4149 2.21201 24.5524 0.4375 24.3381C3.53516 26.3303 7.14113 27.3879 10.8241 27.3844C23.2896 27.3844 30.1065 17.0578 30.1065 8.10202C30.1065 7.81035 30.0984 7.51544 30.0854 7.22702C31.4123 6.26803 32.5575 5.08006 33.4671 3.71892L33.4655 3.7173Z" fill="#85CAE0"/>
</svg>
