<svg width="136" height="1178" viewBox="0 0 136 1178" fill="none" xmlns="http://www.w3.org/2000/svg">
<path opacity="0.1" d="M32.88 46.34C32.88 44.1933 33.4867 42.56 34.7 41.44C36.0067 40.32 37.5467 39.76 39.32 39.76C42.2133 39.76 46.74 41.2533 52.9 44.24L83.28 59.08C90.9333 62.8133 95.6933 64.68 97.56 64.68C99.6133 64.68 100.64 63.7933 100.64 62.02C100.64 60.7133 99.2867 58.8 96.58 56.28C93.8733 53.76 88.5533 49.6067 80.62 43.82L34 9.8C34 9.33333 34.0467 8.54 34.14 7.42C34.2333 6.39333 34.28 5.64666 34.28 5.18C34.28 4.71333 34.2333 3.92 34.14 2.8C34.0467 1.77333 34 1.02666 34 0.559995L85.1 21.84C92.7533 25.0133 97.0933 26.6 98.12 26.6C99.8 26.6 100.64 25.8533 100.64 24.36C100.64 21.3733 95.46 16.0067 85.1 8.26L85.66 7.42C97.7 16.1933 103.72 23.1467 103.72 28.28C103.72 30.4267 103.067 32.06 101.76 33.18C100.547 34.3 99.0533 34.86 97.28 34.86C94.6667 34.86 90.0933 33.46 83.56 30.66L38.2 11.48L81.32 42.98C90.1867 49.5133 96.1133 54.2733 99.1 57.26C102.18 60.34 103.72 63.4667 103.72 66.64C103.72 68.6933 103.067 70.2333 101.76 71.26C100.453 72.38 98.96 72.94 97.28 72.94C94.1067 72.94 89.2533 71.3533 82.72 68.18L51.5 52.92C44.9667 49.6533 40.6267 48.02 38.48 48.02C36.8 48.02 35.96 48.8133 35.96 50.4C35.96 53.1067 41.14 58.38 51.5 66.22L50.94 67.06C38.9 58.1933 32.88 51.2867 32.88 46.34ZM32.88 90.8884C32.88 86.8751 34.5133 83.5618 37.78 80.9484C41.14 78.4284 45.3867 77.1684 50.52 77.1684C58.2667 77.1684 66.2933 79.1751 74.6 83.1884C82.9067 87.2018 89.8133 92.4284 95.32 98.8684C100.92 105.402 103.72 111.935 103.72 118.468C103.72 122.388 102.88 125.608 101.2 128.128C99.52 130.742 97.28 132.048 94.48 132.048C90.84 132.048 87.06 129.622 83.14 124.768C79.22 120.008 76 114.315 73.48 107.688C70.96 101.155 69.42 95.0884 68.86 89.4884C62.98 87.7151 57.66 86.8284 52.9 86.8284C48.0467 86.8284 44.36 87.6218 41.84 89.2084C39.4133 90.7951 38.2 92.9884 38.2 95.7884C38.2 102.508 44.1733 110.442 56.12 119.588L55.56 120.288C40.44 109.275 32.88 99.4751 32.88 90.8884ZM97.14 124.068C100.873 124.068 102.74 122.295 102.74 118.748C102.74 112.868 99.4733 107.268 92.94 101.948C86.5 96.6284 78.8467 92.5684 69.98 89.7684C70.9133 99.1018 74.0867 107.128 79.5 113.848C84.9133 120.662 90.7933 124.068 97.14 124.068ZM32.74 176.33C32.74 171.01 36.24 168.117 43.24 167.65C40.16 164.57 37.64 161.023 35.68 157.01C33.72 152.997 32.74 149.31 32.74 145.95C32.74 143.43 33.44 141.283 34.84 139.51C36.24 137.737 38.34 136.85 41.14 136.85C44.22 136.85 47.9533 137.877 52.34 139.93C56.82 141.983 60.74 144.13 64.1 146.37C67.46 148.703 71.4733 151.55 76.14 154.91C80.8067 158.363 83.7933 160.51 85.1 161.35L93.92 167.23C93.08 166.203 92.66 164.383 92.66 161.77C92.66 160.183 93.22 157.71 94.34 154.35C95.46 150.99 96.02 148.797 96.02 147.77C96.02 146.183 95.5067 144.97 94.48 144.13C93.5467 143.29 92.4733 142.87 91.26 142.87C90.14 142.87 88.6 143.197 86.64 143.85C84.7733 144.503 83.3733 144.83 82.44 144.83C81.04 144.83 79.92 144.457 79.08 143.71C78.3333 143.057 77.96 142.217 77.96 141.19C77.96 138.763 79.5 137.55 82.58 137.55C85.7533 137.55 89.8133 139.463 94.76 143.29C100.08 147.397 102.74 150.99 102.74 154.07C102.74 155.19 102.227 157.383 101.2 160.65C100.267 163.917 99.8 166.577 99.8 168.63C99.8 169.19 99.8467 169.657 99.94 170.03C100.033 170.403 100.22 170.777 100.5 171.15C100.78 171.523 100.967 171.757 101.06 171.85C101.247 172.037 101.667 172.317 102.32 172.69C103.067 173.157 103.533 173.483 103.72 173.67L103.3 174.37L84.68 162.33C68.6267 152.157 55.9333 147.07 46.6 147.07C44.36 147.07 42.54 147.723 41.14 149.03C39.8333 150.337 39.18 151.97 39.18 153.93C39.18 158.783 41 163.31 44.64 167.51C50.9867 167.79 58.7333 169.423 67.88 172.41C77.0267 175.49 85.1 179.177 92.1 183.47C99.1 187.763 102.6 191.543 102.6 194.81C102.6 197.143 100.967 198.31 97.7 198.31C92.4733 198.31 85.1933 196.163 75.86 191.87C66.62 187.67 58.22 182.117 50.66 175.21C46.2733 175.583 43.1933 176.377 41.42 177.59C39.74 178.897 38.9 180.81 38.9 183.33C38.9 187.623 41.3267 192.337 46.18 197.47C51.0333 202.697 56.82 207.037 63.54 210.49C70.3533 213.943 76.3267 215.67 81.46 215.67C85.1933 215.67 88.7867 215.157 92.24 214.13C95.6933 213.197 97.9333 212.73 98.96 212.73C102.133 212.73 103.72 213.99 103.72 216.51C103.72 219.403 100.64 220.85 94.48 220.85C86.2667 220.85 77.3067 218.517 67.6 213.85C57.9867 209.277 49.7733 203.443 42.96 196.35C36.24 189.35 32.8333 182.677 32.74 176.33ZM92.52 192.57C95.32 192.57 96.72 191.683 96.72 189.91C96.72 186.923 92.1467 183.703 83 180.25C73.8533 176.797 63.7733 175.07 52.76 175.07L51.92 175.07C58.1733 180.67 64.8933 184.963 72.08 187.95C79.36 191.03 86.1733 192.57 92.52 192.57ZM32.88 261.103C32.88 257.09 34.5133 253.777 37.78 251.163C41.14 248.643 45.3867 247.383 50.52 247.383C58.2667 247.383 66.2933 249.39 74.6 253.403C82.9067 257.417 89.8133 262.643 95.32 269.083C100.92 275.617 103.72 282.15 103.72 288.683C103.72 292.603 102.88 295.823 101.2 298.343C99.52 300.957 97.28 302.263 94.48 302.263C90.84 302.263 87.06 299.837 83.14 294.983C79.22 290.223 76 284.53 73.48 277.903C70.96 271.37 69.42 265.303 68.86 259.703C62.98 257.93 57.66 257.043 52.9 257.043C48.0467 257.043 44.36 257.837 41.84 259.423C39.4133 261.01 38.2 263.203 38.2 266.003C38.2 272.723 44.1733 280.657 56.12 289.803L55.56 290.503C40.44 279.49 32.88 269.69 32.88 261.103ZM97.14 294.283C100.873 294.283 102.74 292.51 102.74 288.963C102.74 283.083 99.4733 277.483 92.94 272.163C86.5 266.843 78.8467 262.783 69.98 259.983C70.9133 269.317 74.0867 277.343 79.5 284.063C84.9133 290.877 90.7933 294.283 97.14 294.283ZM32.88 343.485C32.88 341.338 33.4867 339.705 34.7 338.585C36.0067 337.465 37.5467 336.905 39.32 336.905C40.6267 336.905 42.0267 337.091 43.52 337.465C45.0133 337.931 46.88 338.585 49.12 339.425C51.36 340.358 52.6667 340.918 53.04 341.105L88.74 354.685L51.08 329.625C44.7333 325.425 40.1133 321.785 37.22 318.705C34.3267 315.718 32.88 312.685 32.88 309.605C32.88 307.271 33.6267 305.265 35.12 303.585C36.6133 301.998 38.9467 301.205 42.12 301.205C46.1333 301.205 51.5467 302.325 58.36 304.565C65.1733 306.898 71.94 309.838 78.66 313.385C85.4733 317.025 91.3533 321.365 96.3 326.405C101.247 331.538 103.72 336.531 103.72 341.385C103.72 346.985 100.173 352.071 93.08 356.645C94.3867 360.098 95.74 362.618 97.14 364.205C98.6333 365.791 100.827 367.331 103.72 368.825L103.44 369.665L51.5 349.645C43.66 346.658 39.32 345.165 38.48 345.165C36.8 345.165 35.96 345.958 35.96 347.545C35.96 350.251 41.14 355.525 51.5 363.365L50.94 364.205C38.9 355.338 32.88 348.431 32.88 343.485ZM35.96 313.945C35.96 316.838 41.2333 321.785 51.78 328.785L92.24 355.805C94.8533 354.311 97.1867 352.351 99.24 349.925C101.293 347.591 102.32 345.305 102.32 343.065C102.32 338.398 98.12 333.405 89.72 328.085C81.32 322.858 72.3133 318.658 62.7 315.485C53.18 312.405 45.9933 310.865 41.14 310.865C37.6867 310.865 35.96 311.891 35.96 313.945ZM34 382.118C34 381.651 34.0467 380.858 34.14 379.738C34.2333 378.711 34.28 377.965 34.28 377.498C34.28 377.031 34.2333 376.238 34.14 375.118C34.0467 374.091 34 373.345 34 372.878L85.1 392.478C92.7533 395.371 97.0933 396.818 98.12 396.818C99.8 396.818 100.64 396.071 100.64 394.578C100.64 391.591 95.46 386.225 85.1 378.478L85.66 377.638C97.7 386.411 103.72 393.365 103.72 398.498C103.72 400.645 103.067 402.278 101.76 403.398C100.547 404.518 99.0533 405.078 97.28 405.078C94.5733 405.078 90 403.818 83.56 401.298L39.88 384.498L73.2 403.258C80.48 407.271 87.3867 411.891 93.92 417.118C100.453 422.345 103.72 426.498 103.72 429.578C103.72 430.791 103.347 431.725 102.6 432.378C101.853 433.125 100.967 433.498 99.94 433.498C97.8867 433.498 96.2067 431.538 94.9 427.618C92.1933 418.845 84.7267 411.005 72.5 404.098L34 382.118ZM32.88 431.925C32.88 429.778 33.4866 428.145 34.7 427.025C36.0066 425.905 37.5466 425.345 39.32 425.345C41.84 425.345 46.6 426.792 53.6 429.685L101.48 448.865L101.48 439.205L102.6 439.205L102.6 449.285L111.56 452.785C112.96 458.665 116.507 462.912 122.2 465.525L121.92 466.225L102.6 458.385L102.6 473.365L101.48 473.365L101.48 457.965L51.78 438.225C44.3133 435.145 39.88 433.605 38.48 433.605C36.8 433.605 35.96 434.398 35.96 435.985C35.96 438.692 41.14 443.965 51.5 451.805L50.94 452.645C38.9 443.778 32.88 436.872 32.88 431.925ZM32.88 503.823C32.88 501.676 33.4866 500.043 34.7 498.923C36.0066 497.803 37.5466 497.243 39.32 497.243C42.2133 497.243 46.74 498.736 52.9 501.723L83.28 516.563C90.9333 520.296 95.6933 522.163 97.56 522.163C99.6133 522.163 100.64 521.276 100.64 519.503C100.64 518.196 99.2866 516.283 96.58 513.763C93.8733 511.243 88.5533 507.089 80.62 501.303L34 467.283C34 466.816 34.0466 466.069 34.14 465.043C34.2333 464.016 34.28 463.269 34.28 462.803C34.28 462.336 34.2333 461.589 34.14 460.563C34.0466 459.443 34 458.649 34 458.183L121.64 493.323C123.507 494.069 124.86 494.443 125.7 494.443C127.473 494.443 128.36 492.763 128.36 489.403L128.36 484.643L129.34 484.643L129.34 486.743C129.34 490.103 129.387 492.716 129.48 494.583C129.667 496.543 130.227 498.829 131.16 501.443C132.093 504.056 133.447 505.969 135.22 507.183L134.94 507.883L38.06 468.963L81.32 500.463C90.1866 506.996 96.1133 511.756 99.1 514.743C102.18 517.729 103.72 520.856 103.72 524.123C103.72 526.176 103.067 527.716 101.76 528.743C100.453 529.863 98.96 530.423 97.28 530.423C94.1066 530.423 89.2533 528.836 82.72 525.663L51.5 510.403C44.9666 507.136 40.6266 505.503 38.48 505.503C36.8 505.503 35.96 506.296 35.96 507.883C35.96 510.589 41.14 515.863 51.5 523.703L50.94 524.543C38.9 515.676 32.88 508.769 32.88 503.823ZM32.88 571.445C32.88 567.712 34.5133 564.538 37.78 561.925C41.14 559.312 45.3866 558.005 50.52 558.005C57.8933 558.005 65.6866 559.872 73.9 563.605C82.2066 567.338 89.2533 572.332 95.04 578.585C100.827 584.838 103.72 591.232 103.72 597.765C103.72 601.685 102.133 604.905 98.96 607.425C95.7866 609.945 92.2866 611.205 88.46 611.205C82.9533 611.205 80.2 609.712 80.2 606.725C80.2 605.698 80.5266 604.858 81.18 604.205C81.9266 603.552 82.8133 603.225 83.84 603.225C84.68 603.225 86.2666 603.645 88.6 604.485C90.9333 605.325 92.9866 605.745 94.76 605.745C97.0933 605.745 99.0066 605.045 100.5 603.645C101.993 602.245 102.74 600.332 102.74 597.905C102.74 593.052 99.9866 588.198 94.48 583.345C88.9733 578.585 82.3466 574.758 74.6 571.865C66.9466 569.065 59.8066 567.665 53.18 567.665C43.1933 567.665 38.2 570.558 38.2 576.345C38.2 583.158 44.1733 591.185 56.12 600.425L55.56 601.125C40.44 590.205 32.88 580.312 32.88 571.445ZM33.86 629.74C33.86 636.273 39.18 642.853 49.82 649.48C56.4466 653.586 63.96 656.993 72.36 659.7C80.76 662.5 87.4333 663.9 92.38 663.9C99.2866 663.9 102.74 661.1 102.74 655.5C102.74 648.966 97.42 642.386 86.78 635.76C80.1533 631.653 72.64 628.2 64.24 625.4C55.84 622.693 49.1666 621.34 44.22 621.34C37.3133 621.34 33.86 624.14 33.86 629.74ZM32.88 629.74C32.88 626.006 34.6066 622.46 38.06 619.1C41.5133 615.833 46.4133 614.2 52.76 614.2C56.96 614.2 61.86 615.18 67.46 617.14C73.1533 619.1 78.7066 621.76 84.12 625.12C89.6266 628.48 94.2466 632.866 97.98 638.28C101.807 643.693 103.72 649.433 103.72 655.5C103.72 659.233 101.993 662.733 98.54 666C95.0866 669.36 90.1866 671.04 83.84 671.04C79.64 671.04 74.6933 670.06 69 668.1C63.4 666.14 57.8466 663.48 52.34 660.12C46.9266 656.76 42.3066 652.373 38.48 646.96C34.7466 641.546 32.88 635.806 32.88 629.74ZM32.88 753.973C32.88 751.827 33.4866 750.193 34.7 749.073C36.0066 747.953 37.5466 747.393 39.32 747.393C42.2133 747.393 46.74 748.887 52.9 751.873L83.28 766.713C90.9333 770.447 95.6933 772.313 97.56 772.313C99.6133 772.313 100.64 771.427 100.64 769.653C100.64 766.947 93.92 760.833 80.48 751.313L34 718.273C34 717.807 34.0466 717.06 34.14 716.033C34.2333 715.1 34.28 714.4 34.28 713.933C34.28 713.467 34.2333 712.673 34.14 711.553C34.0466 710.527 34 709.78 34 709.313L83.28 731.573C91.4 735.307 96.16 737.173 97.56 737.173C99.6133 737.173 100.64 736.287 100.64 734.513C100.64 731.713 93.92 725.6 80.48 716.173L34 683.413C34 682.947 34.0466 682.2 34.14 681.173C34.2333 680.147 34.28 679.4 34.28 678.933C34.28 678.467 34.2333 677.673 34.14 676.553C34.0466 675.433 34 674.64 34 674.173L85.1 695.453C92.7533 698.627 97.0933 700.213 98.12 700.213C99.8 700.213 100.64 699.467 100.64 697.973C100.64 694.987 95.46 689.62 85.1 681.873L85.66 681.033C97.7 689.807 103.72 696.76 103.72 701.893C103.72 704.04 103.067 705.673 101.76 706.793C100.547 707.913 99.0533 708.473 97.28 708.473C94.6666 708.473 90.0933 707.073 83.56 704.273L38.34 685.233L81.18 715.333C89.86 721.4 95.7866 726.067 98.96 729.333C102.133 732.6 103.72 735.867 103.72 739.133C103.72 741.187 103.067 742.727 101.76 743.753C100.453 744.873 98.96 745.433 97.28 745.433C94.5733 745.433 89.72 743.847 82.72 740.673L39.04 720.513L81.18 750.473C89.86 756.633 95.7866 761.3 98.96 764.473C102.133 767.74 103.72 771.007 103.72 774.273C103.72 776.327 103.067 777.867 101.76 778.893C100.453 780.013 98.96 780.573 97.28 780.573C94.1066 780.573 89.2533 778.987 82.72 775.813L51.5 760.553C44.9666 757.287 40.6266 755.653 38.48 755.653C36.8 755.653 35.96 756.447 35.96 758.033C35.96 760.74 41.14 766.013 51.5 773.853L50.94 774.693C38.9 765.827 32.88 758.92 32.88 753.973ZM32.88 862.665C32.88 860.518 33.4866 858.885 34.7 857.765C36.0066 856.645 37.5466 856.085 39.32 856.085C42.2133 856.085 46.74 857.578 52.9 860.565L83.28 875.405C90.9333 879.138 95.6933 881.005 97.56 881.005C99.6133 881.005 100.64 880.118 100.64 878.345C100.64 875.638 93.92 869.525 80.48 860.005L34 826.965C34 826.498 34.0466 825.751 34.14 824.725C34.2333 823.791 34.28 823.091 34.28 822.625C34.28 822.158 34.2333 821.365 34.14 820.245C34.0466 819.218 34 818.471 34 818.005L83.28 840.265C91.4 843.998 96.16 845.865 97.56 845.865C99.6133 845.865 100.64 844.978 100.64 843.205C100.64 840.405 93.92 834.291 80.48 824.865L34 792.105C34 791.638 34.0466 790.891 34.14 789.865C34.2333 788.838 34.28 788.091 34.28 787.625C34.28 787.158 34.2333 786.365 34.14 785.245C34.0466 784.125 34 783.331 34 782.865L85.1 804.145C92.7533 807.318 97.0933 808.905 98.12 808.905C99.8 808.905 100.64 808.158 100.64 806.665C100.64 803.678 95.46 798.311 85.1 790.565L85.66 789.725C97.7 798.498 103.72 805.451 103.72 810.585C103.72 812.731 103.067 814.365 101.76 815.485C100.547 816.605 99.0533 817.165 97.28 817.165C94.6666 817.165 90.0933 815.765 83.56 812.965L38.34 793.925L81.18 824.025C89.86 830.091 95.7866 834.758 98.96 838.025C102.133 841.291 103.72 844.558 103.72 847.825C103.72 849.878 103.067 851.418 101.76 852.445C100.453 853.565 98.96 854.125 97.28 854.125C94.5733 854.125 89.72 852.538 82.72 849.365L39.04 829.205L81.18 859.165C89.86 865.325 95.7866 869.991 98.96 873.165C102.133 876.431 103.72 879.698 103.72 882.965C103.72 885.018 103.067 886.558 101.76 887.585C100.453 888.705 98.96 889.265 97.28 889.265C94.1066 889.265 89.2533 887.678 82.72 884.505L51.5 869.245C44.9666 865.978 40.6266 864.345 38.48 864.345C36.8 864.345 35.96 865.138 35.96 866.725C35.96 869.431 41.14 874.705 51.5 882.545L50.94 883.385C38.9 874.518 32.88 867.611 32.88 862.665ZM32.88 936.776C32.88 934.629 33.4866 932.996 34.7 931.876C36.0066 930.756 37.5466 930.196 39.32 930.196C41.9333 930.196 46.5066 931.596 53.04 934.396L98.4 953.576L55.42 922.776C46.74 916.616 40.8133 911.903 37.64 908.636C34.4666 905.369 32.88 902.149 32.88 898.976C32.88 896.923 33.5333 895.336 34.84 894.216C36.1466 893.189 37.64 892.676 39.32 892.676C42.4933 892.676 47.3466 894.263 53.88 897.436L85.1 912.696C91.6333 915.963 95.9733 917.596 98.12 917.596C99.8 917.596 100.64 916.849 100.64 915.356C100.64 912.556 95.46 907.236 85.1 899.396L85.66 898.556C97.7 907.423 103.72 914.329 103.72 919.276C103.72 921.423 103.067 923.056 101.76 924.176C100.547 925.296 99.0533 925.856 97.28 925.856C94.3866 925.856 89.86 924.363 83.7 921.376L54.02 906.816C45.9933 902.896 40.9066 900.936 38.76 900.936C36.8933 900.936 35.96 901.729 35.96 903.316C35.96 906.116 42.68 912.323 56.12 921.936L102.6 955.256C102.6 955.723 102.553 956.469 102.46 957.496C102.367 958.616 102.32 959.409 102.32 959.876C102.32 960.343 102.367 961.089 102.46 962.116C102.553 963.236 102.6 964.029 102.6 964.496L51.5 943.216C43.8466 940.043 39.5066 938.456 38.48 938.456C36.8 938.456 35.96 939.203 35.96 940.696C35.96 943.683 41.14 949.049 51.5 956.796L50.94 957.636C38.9 948.863 32.88 941.909 32.88 936.776ZM32.88 1011.44C32.88 1009.29 33.4866 1007.66 34.7 1006.54C36.0066 1005.42 37.5466 1004.86 39.32 1004.86C42.2133 1004.86 46.74 1006.35 52.9 1009.34L83.28 1024.18C90.9333 1027.91 95.6933 1029.78 97.56 1029.78C99.6133 1029.78 100.64 1028.89 100.64 1027.12C100.64 1025.81 99.2866 1023.9 96.58 1021.38C93.8733 1018.86 88.5533 1014.7 80.62 1008.92L34 974.898C34 974.431 34.0466 973.638 34.14 972.518C34.2333 971.491 34.28 970.744 34.28 970.278C34.28 969.811 34.2333 969.018 34.14 967.898C34.0466 966.871 34 966.124 34 965.658L85.1 986.938C92.7533 990.111 97.0933 991.698 98.12 991.698C99.8 991.698 100.64 990.951 100.64 989.458C100.64 986.471 95.46 981.104 85.1 973.358L85.66 972.518C97.7 981.291 103.72 988.244 103.72 993.378C103.72 995.524 103.067 997.158 101.76 998.278C100.547 999.398 99.0533 999.958 97.28 999.958C94.6666 999.958 90.0933 998.558 83.56 995.758L38.2 976.578L81.32 1008.08C90.1866 1014.61 96.1133 1019.37 99.1 1022.36C102.18 1025.44 103.72 1028.56 103.72 1031.74C103.72 1033.79 103.067 1035.33 101.76 1036.36C100.453 1037.48 98.96 1038.04 97.28 1038.04C94.1066 1038.04 89.2533 1036.45 82.72 1033.28L51.5 1018.02C44.9666 1014.75 40.6266 1013.12 38.48 1013.12C36.8 1013.12 35.96 1013.91 35.96 1015.5C35.96 1018.2 41.14 1023.48 51.5 1031.32L50.94 1032.16C38.9 1023.29 32.88 1016.38 32.88 1011.44ZM119.26 1083.57C118.047 1082.35 117.44 1080.81 117.44 1078.95C117.44 1077.08 118.047 1075.54 119.26 1074.33C120.473 1073.11 122.013 1072.51 123.88 1072.51C125.747 1072.51 127.287 1073.11 128.5 1074.33C129.807 1075.54 130.46 1077.08 130.46 1078.95C130.46 1080.81 129.807 1082.35 128.5 1083.57C127.287 1084.87 125.747 1085.53 123.88 1085.53C122.013 1085.53 120.473 1084.87 119.26 1083.57ZM83.56 1069.99L51.5 1054.45C45.1533 1051.27 40.8133 1049.69 38.48 1049.69C36.8 1049.69 35.96 1050.48 35.96 1052.07C35.96 1054.77 41.14 1060.05 51.5 1067.89L50.94 1068.73C38.9 1059.86 32.88 1052.95 32.88 1048.01C32.88 1045.86 33.4866 1044.23 34.7 1043.11C36.0066 1041.99 37.5466 1041.43 39.32 1041.43C42.3066 1041.43 46.88 1042.92 53.04 1045.91L85.1 1061.45C91.4466 1064.62 95.7866 1066.21 98.12 1066.21C99.8 1066.21 100.64 1065.41 100.64 1063.83C100.64 1061.12 95.46 1055.85 85.1 1048.01L85.66 1047.17C97.7 1056.03 103.72 1062.94 103.72 1067.89C103.72 1070.03 103.067 1071.67 101.76 1072.79C100.547 1073.91 99.0533 1074.47 97.28 1074.47C94.2933 1074.47 89.72 1072.97 83.56 1069.99ZM32.88 1083.66C32.88 1081.52 33.4866 1079.88 34.7 1078.76C36.0066 1077.64 37.5466 1077.08 39.32 1077.08C41.84 1077.08 46.6 1078.53 53.6 1081.42L101.48 1100.6L101.48 1090.94L102.6 1090.94L102.6 1101.02L111.56 1104.52C112.96 1110.4 116.507 1114.65 122.2 1117.26L121.92 1117.96L102.6 1110.12L102.6 1125.1L101.48 1125.1L101.48 1109.7L51.78 1089.96C44.3133 1086.88 39.88 1085.34 38.48 1085.34C36.8 1085.34 35.96 1086.14 35.96 1087.72C35.96 1090.43 41.14 1095.7 51.5 1103.54L50.94 1104.38C38.9 1095.52 32.88 1088.61 32.88 1083.66ZM34 1142.09C34 1141.62 34.0466 1140.92 34.14 1139.99C34.2333 1139.05 34.28 1138.35 34.28 1137.89C34.28 1137.51 34.2333 1137 34.14 1136.35C34.0466 1135.69 34 1135.23 34 1134.95L30.92 1132.01C22.7066 1124.26 15.66 1115.95 9.77995 1107.09C3.89995 1098.22 0.95995 1090.38 0.95995 1083.57C0.959951 1079.65 2.21995 1077.69 4.73995 1077.69C7.25995 1077.69 8.51995 1079.32 8.51995 1082.59C8.51995 1083.61 8.09995 1085.39 7.25995 1087.91C6.41995 1090.33 5.99995 1092.67 5.99995 1094.91C5.99995 1098.27 8.61328 1103.49 13.84 1110.59C19.0666 1117.68 25.04 1124.54 31.76 1131.17L34.28 1133.55C52.2 1135.79 68.9066 1136.91 84.4 1136.91C87.0133 1136.91 88.9733 1136.86 90.28 1136.77C91.5866 1136.77 93.08 1136.63 94.76 1136.35C96.44 1136.16 97.6066 1135.74 98.26 1135.09C99.0066 1134.43 99.38 1133.59 99.38 1132.57C99.38 1131.26 98.12 1129.63 95.6 1127.67C93.1733 1125.8 89.02 1123.05 83.14 1119.41L83.7 1118.57C86.78 1120.43 89.2533 1121.97 91.12 1123.19C92.9866 1124.4 94.9933 1125.89 97.14 1127.67C99.38 1129.44 101.013 1131.12 102.04 1132.71C103.16 1134.39 103.72 1136.02 103.72 1137.61C103.72 1139.47 103.207 1140.97 102.18 1142.09C101.153 1143.21 99.6133 1144 97.56 1144.47C95.5066 1144.93 93.64 1145.21 91.96 1145.31C90.28 1145.49 88.1333 1145.59 85.52 1145.59C73.48 1145.59 59.9 1144.79 44.78 1143.21C57.1 1153.94 66.4333 1161.22 72.78 1165.05C79.22 1168.87 85.1933 1170.79 90.7 1170.79C91.26 1170.79 92.52 1170.65 94.48 1170.37C96.5333 1170.18 97.8866 1170.09 98.54 1170.09C100.033 1170.09 101.247 1170.41 102.18 1171.07C103.207 1171.81 103.72 1172.79 103.72 1174.01C103.72 1176.62 102.273 1177.93 99.3799 1177.93C94.5266 1177.93 87.34 1175.17 77.82 1169.67C68.3 1164.25 56.68 1155.39 42.96 1143.07L34 1142.09Z" fill="#EBEBEB"/>
</svg>
