<svg width="1920" height="1115" viewBox="0 0 1920 1115" fill="none" xmlns="http://www.w3.org/2000/svg">
<path opacity="0.6" d="M90 771C302.63 771 475 598.63 475 386C475 173.37 302.63 1 90 1C-122.63 1 -295 173.37 -295 386C-295 598.63 -122.63 771 90 771Z" stroke="white" stroke-width="2" stroke-miterlimit="10"/>
<path opacity="0.6" d="M67 471C188.503 471 287 372.503 287 251C287 129.497 188.503 31 67 31C-54.5027 31 -153 129.497 -153 251C-153 372.503 -54.5027 471 67 471Z" stroke="white" stroke-width="2" stroke-miterlimit="10"/>
<path opacity="0.6" d="M1995 608C2116.5 608 2215 509.503 2215 388C2215 266.497 2116.5 168 1995 168C1873.5 168 1775 266.497 1775 388C1775 509.503 1873.5 608 1995 608Z" stroke="white" stroke-width="2" stroke-miterlimit="10"/>
<path opacity="0.6" d="M1827 1114C2004.28 1114 2148 970.283 2148 793C2148 615.717 2004.28 472 1827 472C1649.72 472 1506 615.717 1506 793C1506 970.283 1649.72 1114 1827 1114Z" stroke="white" stroke-width="2" stroke-miterlimit="10"/>
</svg>
