<svg width="24" height="22" viewBox="0 0 24 22" fill="none" xmlns="http://www.w3.org/2000/svg">
<path d="M19 5H22.8C23.1183 5 23.4235 5.12877 23.6485 5.35798C23.8736 5.58719 24 5.89807 24 6.22222V20.7778C24 21.1019 23.8736 21.4128 23.6485 21.642C23.4235 21.8712 23.1183 22 22.8 22H1.2C0.88174 22 0.576515 21.8712 0.351472 21.642C0.126428 21.4128 0 21.1019 0 20.7778V1.22222C0 0.898069 0.126428 0.587192 0.351472 0.357981C0.576515 0.128769 0.88174 0 1.2 0H19V5ZM2 7V20H22V7H2ZM2 2V5H17V2H2ZM15 12H19V14H15V12Z" fill="white"/>
</svg>
