<svg width="30" height="30" viewBox="0 0 30 30" fill="none" xmlns="http://www.w3.org/2000/svg">
<g opacity="0.7" clip-path="url(#clip0_235_959)">
<path opacity="0.7" d="M22.6014 21.3513L15 28.9528L7.39856 21.3513C5.89516 19.8479 4.87133 17.9325 4.45655 15.8472C4.04177 13.7619 4.25467 11.6004 5.06831 9.63612C5.88196 7.67182 7.25981 5.99291 9.02764 4.81169C10.7955 3.63047 12.8739 3 15 3C17.1261 3 19.2045 3.63047 20.9724 4.81169C22.7402 5.99291 24.118 7.67182 24.9317 9.63612C25.7453 11.6004 25.9582 13.7619 25.5435 15.8472C25.1287 17.9325 24.1048 19.8479 22.6014 21.3513Z" stroke="#EBEBEB"/>
<path opacity="0.7" d="M15 19.25C16.4587 19.25 17.8576 18.6705 18.8891 17.6391C19.9205 16.6076 20.5 15.2087 20.5 13.75C20.5 12.2913 19.9205 10.8924 18.8891 9.86091C17.8576 8.82946 16.4587 8.25 15 8.25C13.5413 8.25 12.1424 8.82946 11.1109 9.86091C10.0795 10.8924 9.5 12.2913 9.5 13.75C9.5 15.2087 10.0795 16.6076 11.1109 17.6391C12.1424 18.6705 13.5413 19.25 15 19.25ZM15 15.75C14.4696 15.75 13.9609 15.5393 13.5858 15.1642C13.2107 14.7891 13 14.2804 13 13.75C13 13.2196 13.2107 12.7109 13.5858 12.3358C13.9609 11.9607 14.4696 11.75 15 11.75C15.5304 11.75 16.0391 11.9607 16.4142 12.3358C16.7893 12.7109 17 13.2196 17 13.75C17 14.2804 16.7893 14.7891 16.4142 15.1642C16.0391 15.5393 15.5304 15.75 15 15.75Z" stroke="#EBEBEB"/>
</g>
<defs>
<clipPath id="clip0_235_959">
<rect width="30" height="30" fill="white"/>
</clipPath>
</defs>
</svg>
