<svg width="60" height="58" viewBox="0 0 60 58" fill="none" xmlns="http://www.w3.org/2000/svg">
<path d="M29.999 42.7599C41.5317 42.7599 50.8808 33.4116 50.8808 21.8799C50.8808 10.3483 41.5317 1 29.999 1C18.4663 1 9.11719 10.3483 9.11719 21.8799C9.11719 33.4116 18.4663 42.7599 29.999 42.7599Z" stroke="white" stroke-width="1.5" stroke-miterlimit="10"/>
<path d="M37.8935 56.473C49.4262 56.473 58.7753 47.1247 58.7753 35.5931C58.7753 24.0614 49.4262 14.7131 37.8935 14.7131C26.3608 14.7131 17.0117 24.0614 17.0117 35.5931C17.0117 47.1247 26.3608 56.473 37.8935 56.473Z" stroke="white" stroke-width="1.5" stroke-miterlimit="10"/>
<path d="M22.1045 56.473C33.6371 56.473 42.9862 47.1247 42.9862 35.5931C42.9862 24.0614 33.6371 14.7131 22.1045 14.7131C10.5718 14.7131 1.22266 24.0614 1.22266 35.5931C1.22266 47.1247 10.5718 56.473 22.1045 56.473Z" stroke="white" stroke-width="1.5" stroke-miterlimit="10"/>
</svg>
